<svg xmlns="http://www.w3.org/2000/svg" xmlns:xlink="http://www.w3.org/1999/xlink" style="margin:auto;display:block;z-index:1;position:relative" width="1680" height="916" preserveAspectRatio="xMidYMid" viewBox="0 0 1680 916">
<g transform=""><path id="path0" d="M 242.67075489712832 861.2316332256956
c 0 30.306034214820144 -7.415306244051736 8.704924721278127 -16.120230965329863 8.704924721278127
S 210.4302929664686 891.5376674405157 210.4302929664686 861.2316332256956
s 7.415306244051736 -8.704924721278127 16.120230965329863 -8.704924721278127
S 242.67075489712832 830.9255990108755 242.67075489712832 861.2316332256956
z" fill="none" stroke="none"></path>
<circle cx="0" cy="0" r="4.782181679568417" fill="#ffa2e2">
  <animateMotion begin="-9.757933811353748s" dur="10s" repeatCount="indefinite">
    <mpath xlink:href="#path0"></mpath>
  </animateMotion>
</circle><path id="path1" d="M 461.14663754977227 437.08766807672026
c 0 34.64357267406644 -8.476618845782214 9.950813427657383 -18.427432273439596 9.950813427657383
S 424.2917730028931 471.7312407507867 424.2917730028931 437.08766807672026
s 8.476618845782214 -9.950813427657383 18.427432273439596 -9.950813427657383
S 461.14663754977227 402.44409540265383 461.14663754977227 437.08766807672026
z" fill="none" stroke="none"></path>
<circle cx="0" cy="0" r="7.542616731423084" fill="#00d000">
  <animateMotion begin="-4.851503692731651s" dur="10s" repeatCount="indefinite">
    <mpath xlink:href="#path1"></mpath>
  </animateMotion>
</circle><path id="path2" d="M 155.39770742694407 157.20469222384622
c 0 35.54775975963607 -8.697856111400315 10.210526739469936 -18.90838285087025 10.210526739469936
S 117.58094172520356 192.7524519834823 117.58094172520356 157.20469222384622
s 8.697856111400315 -10.210526739469936 18.90838285087025 -10.210526739469936
S 155.39770742694407 121.65693246421014 155.39770742694407 157.20469222384622
z" fill="none" stroke="none"></path>
<circle cx="0" cy="0" r="4.736583603966179" fill="#ffde00">
  <animateMotion begin="-7.0864385847930205s" dur="10s" repeatCount="indefinite">
    <mpath xlink:href="#path2"></mpath>
  </animateMotion>
</circle><path id="path3" d="M 866.1143795719053 737.3023189645302
c 0 28.10387653500847 -6.876480428778668 8.072390068566262 -14.948870497344931 8.072390068566262
S 836.2166385772153 765.4061954995386 836.2166385772153 737.3023189645302
s 6.876480428778668 -8.072390068566262 14.948870497344931 -8.072390068566262
S 866.1143795719053 709.1984424295217 866.1143795719053 737.3023189645302
z" fill="none" stroke="none"></path>
<circle cx="0" cy="0" r="6.934342929346549" fill="#ffa2e2">
  <animateMotion begin="-5.875172431452769s" dur="10s" repeatCount="indefinite">
    <mpath xlink:href="#path3"></mpath>
  </animateMotion>
</circle><path id="path4" d="M 976.6664383141155 577.37641278293
c 0 22.240513987503544 -5.441827890559377 6.388232741091444 -11.83006063165082 6.388232741091444
S 953.0063170508139 599.6169267704335 953.0063170508139 577.37641278293
s 5.441827890559377 -6.388232741091444 11.83006063165082 -6.388232741091444
S 976.6664383141155 555.1358987954264 976.6664383141155 577.37641278293
z" fill="none" stroke="none"></path>
<circle cx="0" cy="0" r="5.632817998634384" fill="#00e5eb">
  <animateMotion begin="-0.9203268840609735s" dur="10s" repeatCount="indefinite">
    <mpath xlink:href="#path4"></mpath>
  </animateMotion>
</circle><path id="path5" d="M 499.350046206832 543.9301155042684
c 0 29.17815776330906 -7.139336474001152 8.380960208610048 -15.520296682611201 8.380960208610048
S 468.3094528416096 573.1082732675775 468.3094528416096 543.9301155042684
s 7.139336474001152 -8.380960208610048 15.520296682611201 -8.380960208610048
S 499.350046206832 514.7519577409594 499.350046206832 543.9301155042684
z" fill="none" stroke="none"></path>
<circle cx="0" cy="0" r="6.477640467223056" fill="#00d000">
  <animateMotion begin="-5.696133676749415s" dur="10s" repeatCount="indefinite">
    <mpath xlink:href="#path5"></mpath>
  </animateMotion>
</circle><path id="path6" d="M 1587.4221769301625 132.28540476575412
c 0 29.237008443083457 -7.153736108414037 8.397864127268653 -15.55160023568269 8.397864127268653
S 1556.3189764587974 161.52241320883758 1556.3189764587974 132.28540476575412
s 7.153736108414037 -8.397864127268653 15.55160023568269 -8.397864127268653
S 1587.4221769301625 103.04839632267067 1587.4221769301625 132.28540476575412
z" fill="none" stroke="none"></path>
<circle cx="0" cy="0" r="5.260552757797639" fill="#ff5300">
  <animateMotion begin="-7.369007391198776s" dur="10s" repeatCount="indefinite">
    <mpath xlink:href="#path6"></mpath>
  </animateMotion>
</circle><path id="path7" d="M 1078.4377575480742 692.7110796385103
c 0 33.27859030092597 -8.142633797035076 9.558744022606396 -17.701377819641472 9.558744022606396
S 1043.0350019087912 725.9896699394363 1043.0350019087912 692.7110796385103
s 8.142633797035076 -9.558744022606396 17.701377819641472 -9.558744022606396
S 1078.4377575480742 659.4324893375843 1078.4377575480742 692.7110796385103
z" fill="none" stroke="none"></path>
<circle cx="0" cy="0" r="7.851799299042917" fill="#ff5300">
  <animateMotion begin="-7.707969723766173s" dur="10s" repeatCount="indefinite">
    <mpath xlink:href="#path7"></mpath>
  </animateMotion>
</circle><path id="path8" d="M 397.4781629790113 149.28742613812705
c 0 32.47723492583882 -7.94655748185418 9.328567478698385 -17.275124960552567 9.328567478698385
S 362.9279130579062 181.76466106396586 362.9279130579062 149.28742613812705
s 7.94655748185418 -9.328567478698385 17.275124960552567 -9.328567478698385
S 397.4781629790113 116.81019121228823 397.4781629790113 149.28742613812705
z" fill="none" stroke="none"></path>
<circle cx="0" cy="0" r="4.634517715666166" fill="#ffde00">
  <animateMotion begin="-0.2978051768992396s" dur="10s" repeatCount="indefinite">
    <mpath xlink:href="#path8"></mpath>
  </animateMotion>
</circle><path id="path9" d="M 1318.0942298392868 178.2344937754582
c 0 32.233699309043104 -7.886968979872247 9.258615758980465 -17.145584738852712 9.258615758980465
S 1283.8030603615814 210.4681930845013 1283.8030603615814 178.2344937754582
s 7.886968979872247 -9.258615758980465 17.145584738852712 -9.258615758980465
S 1318.0942298392868 146.00079446641507 1318.0942298392868 178.2344937754582
z" fill="none" stroke="none"></path>
<circle cx="0" cy="0" r="5.176498607111182" fill="#ffa2e2">
  <animateMotion begin="-9.776234682686757s" dur="10s" repeatCount="indefinite">
    <mpath xlink:href="#path9"></mpath>
  </animateMotion>
</circle><path id="path10" d="M 1646.399419134582 799.579046124823
c 0 27.21420379807705 -6.658794546338001 7.816845771788089 -14.475640318126091 7.816845771788089
S 1617.4481384983299 826.7932499229 1617.4481384983299 799.579046124823
s 6.658794546338001 -7.816845771788089 14.475640318126091 -7.816845771788089
S 1646.399419134582 772.3648423267459 1646.399419134582 799.579046124823
z" fill="none" stroke="none"></path>
<circle cx="0" cy="0" r="6.892000044510162" fill="#ff5300">
  <animateMotion begin="-6.029428854193752s" dur="10s" repeatCount="indefinite">
    <mpath xlink:href="#path10"></mpath>
  </animateMotion>
</circle><path id="path11" d="M 117.00135704929143 490.8167213752075
c 0 34.52821781567776 -8.448393720857323 9.91767958535425 -18.366073306211575 9.91767958535425
S 80.26921043686828 525.3449391908853 80.26921043686828 490.8167213752075
s 8.448393720857323 -9.91767958535425 18.366073306211575 -9.91767958535425
S 117.00135704929143 456.2885035595298 117.00135704929143 490.8167213752075
z" fill="none" stroke="none"></path>
<circle cx="0" cy="0" r="5.98276225384104" fill="#ffde00">
  <animateMotion begin="-3.407815472738618s" dur="10s" repeatCount="indefinite">
    <mpath xlink:href="#path11"></mpath>
  </animateMotion>
</circle><path id="path12" d="M 836.7912334284213 896.0872212372944
c 0 31.566358434053587 -7.723683446630132 9.066932741696244 -16.790616188326375 9.066932741696244
S 803.2100010517686 927.653579671348 803.2100010517686 896.0872212372944
s 7.723683446630132 -9.066932741696244 16.790616188326375 -9.066932741696244
S 836.7912334284213 864.5208628032409 836.7912334284213 896.0872212372944
z" fill="none" stroke="none"></path>
<circle cx="0" cy="0" r="4.8596136913443235" fill="#00d000">
  <animateMotion begin="-4.489539813927772s" dur="10s" repeatCount="indefinite">
    <mpath xlink:href="#path12"></mpath>
  </animateMotion>
</circle><path id="path13" d="M 1284.4353354170928 75.37874945530999
c 0 26.834876804230376 -6.565980494652113 7.707890145895959 -14.273870640548072 7.707890145895959
S 1255.8875941359968 102.21362625954036 1255.8875941359968 75.37874945530999
s 6.565980494652113 -7.707890145895959 14.273870640548072 -7.707890145895959
S 1284.4353354170928 48.54387265107961 1284.4353354170928 75.37874945530999
z" fill="none" stroke="none"></path>
<circle cx="0" cy="0" r="5.52870686601044" fill="#00e5eb">
  <animateMotion begin="-7.994269275192092s" dur="10s" repeatCount="indefinite">
    <mpath xlink:href="#path13"></mpath>
  </animateMotion>
</circle><path id="path14" d="M 562.76639074036 240.2709179894919
c 0 33.23318501978718 -8.131523994203246 9.545702080151637 -17.67722607435488 9.545702080151637
S 527.4119385916503 273.50410300927905 527.4119385916503 240.2709179894919
s 8.131523994203246 -9.545702080151637 17.67722607435488 -9.545702080151637
S 562.76639074036 207.0377329697047 562.76639074036 240.2709179894919
z" fill="none" stroke="none"></path>
<circle cx="0" cy="0" r="6.6147707595926875" fill="#00e5eb">
  <animateMotion begin="-8.342017854892541s" dur="10s" repeatCount="indefinite">
    <mpath xlink:href="#path14"></mpath>
  </animateMotion>
</circle><path id="path15" d="M 621.9688407038261 90.83169821938516
c 0 24.560666585698076 -6.009524802883571 7.05465955121115 -13.06418435409472 7.05465955121115
S 595.8404719956368 115.39236480508323 595.8404719956368 90.83169821938516
s 6.009524802883571 -7.05465955121115 13.06418435409472 -7.05465955121115
S 621.9688407038261 66.27103163368709 621.9688407038261 90.83169821938516
z" fill="none" stroke="none"></path>
<circle cx="0" cy="0" r="4.2095154995071935" fill="#00e5eb">
  <animateMotion begin="-3.9268232903061673s" dur="10s" repeatCount="indefinite">
    <mpath xlink:href="#path15"></mpath>
  </animateMotion>
</circle><path id="path16" d="M 1527.4597693290893 709.832163366066
c 0 31.17877109733237 -7.628848247219621 8.955604464127383 -16.584452711347005 8.955604464127383
S 1494.2908639063953 741.0109344633984 1494.2908639063953 709.832163366066
s 7.628848247219621 -8.955604464127383 16.584452711347005 -8.955604464127383
S 1527.4597693290893 678.6533922687336 1527.4597693290893 709.832163366066
z" fill="none" stroke="none"></path>
<circle cx="0" cy="0" r="6.6516055730895856" fill="#ff5300">
  <animateMotion begin="-1.1756470728290513s" dur="10s" repeatCount="indefinite">
    <mpath xlink:href="#path16"></mpath>
  </animateMotion>
</circle><path id="path17" d="M 488.4056627500233 170.1592844545148
c 0 32.776276612759936 -8.0197272563136 9.414462431324662 -17.434189687638263 9.414462431324662
S 453.5372833747468 202.93556106727473 453.5372833747468 170.1592844545148
s 8.0197272563136 -9.414462431324662 17.434189687638263 -9.414462431324662
S 488.4056627500233 137.38300784175485 488.4056627500233 170.1592844545148
z" fill="none" stroke="none"></path>
<circle cx="0" cy="0" r="4.119352037834948" fill="#00e5eb">
  <animateMotion begin="-8.228863156523163s" dur="10s" repeatCount="indefinite">
    <mpath xlink:href="#path17"></mpath>
  </animateMotion>
</circle><path id="path18" d="M 847.4121424480645 895.4866305836799
c 0 20.24367745698952 -4.953240228837861 5.814673312114011 -10.767913540951872 5.814673312114011
S 825.8763153661607 915.7303080406695 825.8763153661607 895.4866305836799
s 4.953240228837861 -5.814673312114011 10.767913540951872 -5.814673312114011
S 847.4121424480645 875.2429531266904 847.4121424480645 895.4866305836799
z" fill="none" stroke="none"></path>
<circle cx="0" cy="0" r="6.493028644806027" fill="#ff5300">
  <animateMotion begin="-4.389654337903783s" dur="10s" repeatCount="indefinite">
    <mpath xlink:href="#path18"></mpath>
  </animateMotion>
</circle><path id="path19" d="M 1624.7029278291327 280.408585261411
c 0 27.989814483031687 -6.848571628826901 8.03962756427506 -14.888199193101961 8.03962756427506
S 1594.926529442929 308.3983997444427 1594.926529442929 280.408585261411
s 6.848571628826901 -8.03962756427506 14.888199193101961 -8.03962756427506
S 1624.7029278291327 252.41877077837933 1624.7029278291327 280.408585261411
z" fill="none" stroke="none"></path>
<circle cx="0" cy="0" r="4.991621908125432" fill="#ffde00">
  <animateMotion begin="-6.387630814391048s" dur="10s" repeatCount="indefinite">
    <mpath xlink:href="#path19"></mpath>
  </animateMotion>
</circle><path id="path20" d="M 1336.9311279025449 902.1225499250611
c 0 22.60273585730608 -5.530456645936593 6.492275193056002 -12.022731838992595 6.492275193056002
S 1312.8856642245598 924.7252857823672 1312.8856642245598 902.1225499250611
s 5.530456645936593 -6.492275193056002 12.022731838992595 -6.492275193056002
S 1336.9311279025449 879.519814067755 1336.9311279025449 902.1225499250611
z" fill="none" stroke="none"></path>
<circle cx="0" cy="0" r="7.862177839746139" fill="#00d000">
  <animateMotion begin="-1.4719951965183098s" dur="10s" repeatCount="indefinite">
    <mpath xlink:href="#path20"></mpath>
  </animateMotion>
</circle><path id="path21" d="M 277.3310684394241 694.9891620752538
c 0 36.36903900346525 -8.898807415741494 10.446426096740018 -19.345233512481514 10.446426096740018
S 238.64060141446106 731.358201078719 238.64060141446106 694.9891620752538
s 8.898807415741494 -10.446426096740018 19.345233512481514 -10.446426096740018
S 277.3310684394241 658.6201230717886 277.3310684394241 694.9891620752538
z" fill="none" stroke="none"></path>
<circle cx="0" cy="0" r="4.950494489868645" fill="#00d000">
  <animateMotion begin="-7.132064489002474s" dur="10s" repeatCount="indefinite">
    <mpath xlink:href="#path21"></mpath>
  </animateMotion>
</circle><path id="path22" d="M 1391.3477087553954 777.3491778191309
c 0 22.099824034040022 -5.407403753009793 6.3478217970114965 -11.755225550021288 6.3478217970114965
S 1367.8372576553527 799.4490018531709 1367.8372576553527 777.3491778191309
s 5.407403753009793 -6.3478217970114965 11.755225550021288 -6.3478217970114965
S 1391.3477087553954 755.2493537850909 1391.3477087553954 777.3491778191309
z" fill="none" stroke="none"></path>
<circle cx="0" cy="0" r="4.498815845718236" fill="#ff5300">
  <animateMotion begin="-1.952933340633678s" dur="10s" repeatCount="indefinite">
    <mpath xlink:href="#path22"></mpath>
  </animateMotion>
</circle><path id="path23" d="M 245.76405459893124 143.34289301879159
c 0 36.857451757497564 -9.018312664068551 10.586714866515258 -19.60502753058381 10.586714866515258
S 206.55399953776362 180.20034477628914 206.55399953776362 143.34289301879159
s 9.018312664068551 -10.586714866515258 19.60502753058381 -10.586714866515258
S 245.76405459893124 106.48544126129403 245.76405459893124 143.34289301879159
z" fill="none" stroke="none"></path>
<circle cx="0" cy="0" r="5.787169775275517" fill="#ffde00">
  <animateMotion begin="-5.765913224972696s" dur="10s" repeatCount="indefinite">
    <mpath xlink:href="#path23"></mpath>
  </animateMotion>
</circle><path id="path24" d="M 1451.8032528777132 675.9347677897825
c 0 27.136768731949484 -6.639847668455724 7.794603784708895 -14.434451453164618 7.794603784708895
S 1422.9343499713839 703.071536521732 1422.9343499713839 675.9347677897825
s 6.639847668455724 -7.794603784708895 14.434451453164618 -7.794603784708895
S 1451.8032528777132 648.7979990578331 1451.8032528777132 675.9347677897825
z" fill="none" stroke="none"></path>
<circle cx="0" cy="0" r="7.410276587761044" fill="#ffde00">
  <animateMotion begin="-4.655391783145221s" dur="10s" repeatCount="indefinite">
    <mpath xlink:href="#path24"></mpath>
  </animateMotion>
</circle><path id="path25" d="M 460.40990823460425 362.9659454375882
c 0 23.140083613557003 -5.661935352253309 6.646619761340842 -12.308555113594151 6.646619761340842
S 435.79279800741597 386.1060290511452 435.79279800741597 362.9659454375882
s 5.661935352253309 -6.646619761340842 12.308555113594151 -6.646619761340842
S 460.40990823460425 339.82586182403116 460.40990823460425 362.9659454375882
z" fill="none" stroke="none"></path>
<circle cx="0" cy="0" r="6.599042264984948" fill="#ffde00">
  <animateMotion begin="-1.3915264856397402s" dur="10s" repeatCount="indefinite">
    <mpath xlink:href="#path25"></mpath>
  </animateMotion>
</circle><path id="path26" d="M 730.2949055672115 852.8916035466325
c 0 33.15156710589491 -8.11155365357003 9.522258636799604 -17.633812290369633 9.522258636799604
S 695.0272809864722 886.0431706525274 695.0272809864722 852.8916035466325
s 8.11155365357003 -9.522258636799604 17.633812290369633 -9.522258636799604
S 730.2949055672115 819.7400364407376 730.2949055672115 852.8916035466325
z" fill="none" stroke="none"></path>
<circle cx="0" cy="0" r="5.061994559785337" fill="#00e5eb">
  <animateMotion begin="-0.11555493387073845s" dur="10s" repeatCount="indefinite">
    <mpath xlink:href="#path26"></mpath>
  </animateMotion>
</circle><path id="path27" d="M 1270.8243890977503 566.4420186144661
c 0 30.333094731802618 -7.421927434377236 8.712697422964581 -16.134624857341816 8.712697422964581
S 1238.5551393830667 596.7751133462687 1238.5551393830667 566.4420186144661
s 7.421927434377236 -8.712697422964581 16.134624857341816 -8.712697422964581
S 1270.8243890977503 536.1089238826635 1270.8243890977503 566.4420186144661
z" fill="none" stroke="none"></path>
<circle cx="0" cy="0" r="5.111976935204583" fill="#ff5300">
  <animateMotion begin="-1.8886555052573417s" dur="10s" repeatCount="indefinite">
    <mpath xlink:href="#path27"></mpath>
  </animateMotion>
</circle><path id="path28" d="M 1271.0493740073475 348.35651727215367
c 0 35.69645539693312 -8.734239086483635 10.25323718848079 -18.987476274964425 10.25323718848079
S 1233.0744214574188 384.0529726690868 1233.0744214574188 348.35651727215367
s 8.734239086483635 -10.25323718848079 18.987476274964425 -10.25323718848079
S 1271.0493740073475 312.66006187522055 1271.0493740073475 348.35651727215367
z" fill="none" stroke="none"></path>
<circle cx="0" cy="0" r="5.124890400806638" fill="#ffde00">
  <animateMotion begin="-1.2086436193052519s" dur="10s" repeatCount="indefinite">
    <mpath xlink:href="#path28"></mpath>
  </animateMotion>
</circle><path id="path29" d="M 1521.8661507817892 880.2696909256625
c 0 32.36166735306296 -7.918280309792 9.295372537581915 -17.213652847373915 9.295372537581915
S 1487.4388450870415 912.6313582787255 1487.4388450870415 880.2696909256625
s 7.918280309792 -9.295372537581915 17.213652847373915 -9.295372537581915
S 1521.8661507817892 847.9080235725995 1521.8661507817892 880.2696909256625
z" fill="none" stroke="none"></path>
<circle cx="0" cy="0" r="6.9266949519825625" fill="#00d000">
  <animateMotion begin="-4.438789339888858s" dur="10s" repeatCount="indefinite">
    <mpath xlink:href="#path29"></mpath>
  </animateMotion>
</circle></g>
</svg>